PathFileType	4	(X/Y/Z)	Run_200 02
DataRate	CameraRate	NumFrames	NumMarkers	Units	OrigDataRate	OrigDataStartFrame	OrigNumFrames
100	100	4	42	mm	100	140	128
Frame#	Time	LASI			RASI			LPSI			RPSI			RTH1			RTH2			RTH3			LTH1			LTH2			LTH3			RTB1			RTB2			RTB3			LTB1			LTB2			LTB3			RCAL			RTOE			RMT5			LCAL			LTOE			LMT5			LACR			RACR			CLAV			C7			RUA1			RUA2			RUA3			RLEL			RMEL			LUA1			LUA2			LUA3			LLEL			LMEL			RFAsuperior			RFAradius			RFAulna			LFAsuperior			LFAradius			LFAulna			
		X1	Y1	Z1	X2	Y2	Z2	X3	Y3	Z3	X4	Y4	Z4	X5	Y5	Z5	X6	Y6	Z6	X7	Y7	Z7	X8	Y8	Z8	X9	Y9	Z9	X10	Y10	Z10	X11	Y11	Z11	X12	Y12	Z12	X13	Y13	Z13	X14	Y14	Z14	X15	Y15	Z15	X16	Y16	Z16	X17	Y17	Z17	X18	Y18	Z18	X19	Y19	Z19	X20	Y20	Z20	X21	Y21	Z21	X22	Y22	Z22	X23	Y23	Z23	X24	Y24	Z24	X25	Y25	Z25	X26	Y26	Z26	X27	Y27	Z27	X28	Y28	Z28	X29	Y29	Z29	X30	Y30	Z30	X31	Y31	Z31	X32	Y32	Z32	X33	Y33	Z33	X34	Y34	Z34	X35	Y35	Z35	X36	Y36	Z36	X37	Y37	Z37	X38	Y38	Z38	X39	Y39	Z39	X40	Y40	Z40	X41	Y41	Z41	X42	Y42	Z42	

137	2.5	929.916204	996.239517	-439.321057	937.1194390000001	1013.219936	-198.714186	770.697927	1048.585398	-366.905879	766.075962	1048.943245	-266.847605	952.648606	791.09225	-133.484942	1044.595142	740.991492	-148.416705	1026.532172	633.490322	-164.241502	863.852411	796.188629	-471.441273	893.666624	685.820686	-448.120902	808.768408	590.3319739999999	-434.35359	1072.808685	425.904854	-221.960329	1018.585009	358.264533	-180.531447	1019.820813	247.801925	-242.954449	776.4347780000001	389.049455	-358.933329	694.007966	337.368008	-412.980234	674.412338	229.07557	-338.826702	901.840371	164.68859	-272.221814	1115.123278	102.804938	-270.248715	1057.238666	79.239864	-175.254232	526.546101	157.417995	-318.522281	723.941254	64.19475199999999	-315.90805	667.0079950000001	48.884137	-415.08446	952.892309	1489.064502	-463.077319	920.194363	1482.075654	-166.103693	1017.461636	1409.445026	-289.923402	890.231125	1518.54863	-316.502031	827.222972	1401.063023	-79.648236	750.9748990000001	1370.198469	-122.426704	747.7654649999999	1305.605197	-53.471493	692.276853	1257.997678	-35.257488	669.132111	1247.892985	-108.94811	913.837936	1379.408387	-561.344201	855.742989	1318.333254	-549.769846	910.693001	1283.344434	-608.292885	895.743307	1200.276398	-639.876489	857.175675	1171.640945	-581.101448	781.887642	1183.671479	-31.091388	887.7091339999999	1118.859974	-95.018637	834.914763	1071.519314	-80.311374	997.604801	1216.09887	-579.081237	1076.562925	1203.137052	-461.228517	1099.484278	1154.260141	-504.363841	
138	2.51	931.908172	1000.283833	-438.378692	937.821164	1018.016726	-197.919354	772.712758	1052.95805	-366.523235	767.62175	1053.711496	-267.290159	950.598289	793.9036	-133.91046	1041.256043	742.03035	-148.797285	1021.608251	634.446878	-164.454707	861.43387	800.530672	-470.074448	888.596253	689.8846579999999	-449.005095	801.066119	596.560288	-435.448551	1077.400264	427.392751	-223.455215	1029.003885	355.528811	-181.247256	1038.490222	245.732844	-244.606525	764.769732	395.230551	-361.664774	680.8045959999999	345.626415	-415.333747	662.01706	235.832208	-342.531948	928.169019	152.446811	-273.625084	1146.215647	110.005664	-274.674917	1091.755031	79.79689500000001	-179.627903	514.504409	167.707133	-320.921276	705.23101	63.673241	-316.58933	647.687227	49.02179	-415.763775	955.157501	1493.407572	-462.061084	920.523653	1486.167007	-165.969537	1018.20036	1413.749882	-288.918617	891.552754	1522.882166	-316.548018	826.342723	1406.093825	-79.549809	750.553453	1376.164197	-123.410862	746.0276	1310.896758	-55.245107	689.794442	1263.576417	-37.963788	668.226274	1254.007891	-112.288292	916.762545	1384.512061	-561.22337	857.669494	1324.194683	-550.022691	912.774978	1288.345669	-607.719074	897.475743	1205.103313	-639.466771	858.488821	1176.738641	-580.599864	778.7813640000001	1188.560797	-33.152361	884.94498	1123.58306	-96.435576	831.705679	1076.44333	-82.651155	998.726985	1222.077285	-577.977118	1076.990783	1210.404935	-459.266001	1100.554344	1161.887129	-501.680106	
139	2.52	934.042893	1004.181879	-437.453257	938.802469	1021.948829	-196.927239	774.817425	1056.799917	-365.933611	769.411969	1057.698968	-267.232204	947.980629	795.592972	-133.861089	1036.936702	741.394437	-148.634603	1015.469854	633.884829	-164.44753	859.516191	804.856536	-469.843981	884.406089	693.632914	-450.541407	794.695007	602.446051	-436.682715	1080.572724	428.456153	-225.032979	1037.618977	353.146708	-181.834009	1054.943384	244.437141	-245.788333	755.16716	400.938166	-364.895365	669.358953	353.757788	-418.18013	651.057376	242.50456	-346.887966	952.34565	142.238227	-274.256992	1173.207181	118.793445	-279.290756	1123.127409	81.751982	-184.389483	503.721997	178.57689	-324.081464	686.813598	63.681163	-317.380128	628.7733500000001	49.682511	-416.500504	957.009376	1497.120876	-461.059109	921.049044	1489.800488	-165.937187	1018.82726	1417.540284	-288.047623	892.693247	1526.692652	-316.567547	825.965371	1410.666193	-79.42540200000001	750.4568	1381.751892	-124.014592	744.870104	1315.63318	-56.810777	687.971122	1268.47496	-40.419726	667.856865	1259.455938	-115.248205	919.023907	1389.089307	-560.983072	859.012904	1329.574379	-550.188709	914.407272	1292.965584	-607.345729	898.610352	1209.416784	-638.999239	859.2261580000001	1181.375829	-580.0817970000001	776.486251	1192.916947	-35.104715	882.866537	1127.789081	-97.953928	829.35228	1080.874827	-84.903676	999.332657	1227.30338	-576.997273	1077.535906	1216.602881	-457.206016	1101.092561	1168.619346	-499.363905	
140	2.53	936.122972	1007.503998	-436.580116	939.926617	1024.745281	-195.829611	776.955695	1060.109455	-365.497674	771.360542	1060.873255	-266.675129	945.0840490000001	796.197909	-133.303457	1032.221955	739.380394	-147.883682	1008.792364	632.123902	-164.30773	858.273026	808.986047	-471.072253	881.190799	696.8869560000001	-452.507104	790.012798	607.449755	-437.847191	1082.414038	428.96914	-226.073383	1043.891789	350.979429	-182.305083	1068.541804	243.720372	-246.508706	747.891115	405.671581	-368.291964	660.078334	361.154444	-421.258794	641.383653	248.805655	-351.431894	973.286156	134.052352	-274.512605	1195.11131	128.558584	-283.624945	1149.969907	84.7646	-189.225488	493.99537	189.97224	-328.000582	668.828377	64.35602	-318.33442	610.340239	51.178156	-417.295014	958.327723	1500.128048	-460.102594	921.661718	1492.889912	-165.993133	1019.308893	1420.72185	-287.275002	893.461801	1529.7659	-316.492091	825.930862	1414.69172	-79.381286	750.578774	1386.640021	-124.495475	744.167835	1319.729041	-58.102009	686.6932	1272.558319	-42.553176	667.6347479999999	1264.159646	-117.715567	920.527572	1393.047191	-560.6079140000001	859.826545	1334.281073	-550.203522	915.488412	1297.046467	-606.922963	899.19175	1213.091416	-638.508921	859.485528	1185.37436	-579.615282	774.9279309999999	1196.644853	-36.891132	881.442821	1131.415665	-99.500715	827.8702489999999	1084.749161	-86.962125	999.470962	1231.638804	-576.21469	1078.230745	1221.735437	-455.152899	1101.199051	1174.161353	-497.551456	
